<svg width="130" height="43" viewBox="0 0 130 43" fill="none" xmlns="http://www.w3.org/2000/svg">
<g clip-path="url(#clip0_80_71)">
<path d="M57.02 18.4498L56.08 15.6998H49.89L48.95 18.4498H45.66L50.97 3.75977H55.02L60.33 18.4498H57.04H57.02ZM50.68 13.3798H55.27L53.07 6.97977H52.88L50.68 13.3798Z" fill="white"/>
<path d="M61.7599 3.76953H64.91V18.4595H61.7599V3.76953Z" fill="white"/>
<path d="M73.13 3.76953C76.89 3.76953 78.73 5.65953 78.73 8.67953C78.73 11.6995 76.88 13.5695 73.13 13.5695H70.34V18.4595H67.19V3.76953H73.13ZM73.02 10.8395C74.7 10.8395 75.5 10.0195 75.5 8.67953C75.5 7.33953 74.7 6.49953 73.02 6.49953H70.33V10.8395H73.02Z" fill="white"/>
<path d="M86.33 3.76953C90.09 3.76953 91.93 5.65953 91.93 8.67953C91.93 11.6995 90.08 13.5695 86.33 13.5695H83.54V18.4595H80.39V3.76953H86.33ZM86.22 10.8395C87.9 10.8395 88.7 10.0195 88.7 8.67953C88.7 7.33953 87.9 6.49953 86.22 6.49953H83.53V10.8395H86.22Z" fill="white"/>
<path d="M93.58 3.76953H96.73V15.7295H103.49V18.4595H93.59V3.76953H93.58Z" fill="white"/>
<path d="M107.93 13.0595L102.62 3.76953H106.19L109.55 10.0195L112.93 3.76953H116.5L111.19 13.0595V18.4495H107.94V13.0595H107.93Z" fill="white"/>
<path d="M57.02 37.42L56.08 34.67H49.89L48.95 37.42H45.66L50.97 22.73H55.02L60.33 37.42H57.04H57.02ZM50.68 32.34H55.27L53.07 25.94H52.88L50.68 32.34Z" fill="white"/>
<path d="M60.6 30.1198C60.6 25.3998 63.41 22.5498 67.52 22.5498C70.73 22.5498 73.12 24.1898 73.6 27.3998H70.5C70.06 25.8298 68.84 25.2598 67.5 25.2598C65.09 25.2598 63.83 27.1898 63.83 30.0398C63.83 32.8898 65.09 34.9298 67.52 34.9298C69.3 34.9298 70.75 33.9598 70.75 31.8698H67.92V29.3498H73.88V30.5498C73.88 35.3098 71.72 37.6398 67.61 37.6398C63.18 37.6398 60.6 34.8498 60.6 30.1298V30.1198Z" fill="white"/>
<path d="M75.85 22.7297H85.88V25.4597H79V28.7497H85.25V31.1997H79V34.6797H86.09V37.4097H75.85V22.7197V22.7297Z" fill="white"/>
<path d="M87.75 22.73H91.02L96.94 32.38H97V22.73H100.15V37.42H96.75L90.96 27.96H90.9V37.42H87.75V22.73Z" fill="white"/>
<path d="M102.02 30.0798C102.02 25.3798 104.71 22.5498 108.86 22.5498C112.36 22.5498 114.78 24.3298 115.05 27.8398H111.99C111.57 26.1198 110.52 25.2598 108.86 25.2598C106.43 25.2598 105.25 27.1698 105.25 30.0898C105.25 33.0098 106.4 34.9398 108.86 34.9398C110.43 34.9398 111.57 34.1198 111.99 32.3398H115.05C114.78 35.8598 112.36 37.6498 108.86 37.6498C104.71 37.6498 102.02 34.8198 102.02 30.0998V30.0798Z" fill="white"/>
<path d="M120.81 32.0297L115.5 22.7397H119.07L122.43 28.9897L125.81 22.7397H129.38L124.07 32.0297V37.4197H120.82V32.0297H120.81Z" fill="white"/>
<path d="M21.23 0C5.68 0 0 5.7 0 21.23C0 36.76 5.68 42.47 21.23 42.47C36.78 42.47 42.46 36.77 42.46 21.23C42.46 5.69 36.77 0 21.23 0ZM26.91 28.44L16.76 26.65L23.39 34.52L21.92 37.08L10.55 23.05L28.38 25.88L26.9 28.42L26.91 28.44ZM29.45 23.83L11.62 21.01L13.1 18.45L30.93 21.27L29.45 23.83ZM14.24 16.35L15.72 13.81L25.85 15.6L19.23 7.73L20.7 5.19L32.07 19.2L14.24 16.37V16.35Z" fill="white"/>
</g>
<defs>
<clipPath id="clip0_80_71">
<rect width="129.37" height="42.47" fill="white"/>
</clipPath>
</defs>
</svg>
