<svg width="18" height="18" viewBox="0 0 18 18" fill="none" xmlns="http://www.w3.org/2000/svg">
<path d="M8.74257 0.257324C3.93416 0.257324 0 4.19148 0 8.9999C0 13.8083 3.93416 17.7425 8.74257 17.7425C13.551 17.7425 17.4851 13.8083 17.4851 8.9999C17.4851 4.19148 13.551 0.257324 8.74257 0.257324ZM11.9773 9.61188L9.35455 12.2346C9.00485 12.5844 8.4803 12.5844 8.13059 12.2346C7.78089 11.8849 7.78089 11.3604 8.13059 11.0107L9.26713 9.87415H6.1198C5.59525 9.87415 5.24554 9.52445 5.24554 8.9999C5.24554 8.47534 5.59525 8.12564 6.1198 8.12564H9.26713L8.13059 6.9891C7.78089 6.6394 7.78089 6.11485 8.13059 5.76514C8.4803 5.41544 9.00485 5.41544 9.35455 5.76514L11.9773 8.38792C12.327 8.73762 12.327 9.26217 11.9773 9.61188Z" fill="#111204"/>
</svg>
